<svg width="704" height="456" viewBox="0 0 704 456" fill="none" xmlns="http://www.w3.org/2000/svg">
<g clip-path="url(#clip0)">
<path d="M114.368 212.299C124.674 212.299 133.028 203.945 133.028 193.639C133.028 183.333 124.674 174.979 114.368 174.979C104.062 174.979 95.7078 183.333 95.7078 193.639C95.7078 203.945 104.062 212.299 114.368 212.299Z" fill="#FFB8B8"/>
<path d="M51.3157 417.252L56.0406 425.279L89.2508 410.875L82.277 399.028L51.3157 417.252Z" fill="#FFB8B8"/>
<path d="M52.7315 413.662L62.0364 429.47L62.0368 429.471C62.8155 430.794 63.326 432.257 63.5391 433.778C63.7523 435.298 63.6639 436.845 63.279 438.331C62.8941 439.817 62.2203 441.213 61.296 442.439C60.3717 443.664 59.215 444.696 57.892 445.475L57.5646 445.667L42.3298 419.785L52.7315 413.662Z" fill="#2F2E41"/>
<path d="M106.061 446.17L115.376 446.17L119.806 410.243L106.059 410.243L106.061 446.17Z" fill="#FFB8B8"/>
<path d="M103.685 443.129L122.029 443.128H122.029C123.564 443.128 125.085 443.431 126.503 444.018C127.921 444.606 129.21 445.467 130.295 446.552C131.381 447.638 132.242 448.926 132.829 450.345C133.417 451.763 133.719 453.283 133.719 454.818V455.198L103.686 455.199L103.685 443.129Z" fill="#2F2E41"/>
<path d="M68.6141 424.403C68.078 424.404 67.5494 424.278 67.0711 424.036C66.5927 423.794 66.1781 423.443 65.8607 423.011L56.8777 410.81C56.6036 410.438 56.4079 410.014 56.3023 409.564C56.1967 409.114 56.1834 408.648 56.2632 408.192C56.3431 407.737 56.5144 407.303 56.7669 406.916C57.0193 406.529 57.3476 406.197 57.732 405.94L97.7054 379.241L73.586 315.821L125.165 320.078L126.902 374.577C127.065 379.541 125.875 384.455 123.46 388.794C121.046 393.133 117.496 396.734 113.192 399.211L70.3222 423.944C69.8032 424.245 69.2139 424.403 68.6141 424.403Z" fill="#2F2E41"/>
<path d="M106.342 438.876C105.458 438.875 104.608 438.53 103.972 437.915C103.336 437.301 102.963 436.463 102.932 435.579L101.042 382.486L124.448 381.253L122.584 434.727C122.557 435.575 122.215 436.381 121.625 436.99C121.035 437.598 120.24 437.966 119.394 438.019L106.575 438.869C106.497 438.874 106.419 438.876 106.342 438.876Z" fill="#2F2E41"/>
<path d="M131.134 330.621C125.179 330.621 104.378 323.923 97.1571 321.535C96.0769 322.399 90.1423 326.837 83.2149 326.026C78.9406 325.525 75.1776 323.105 72.0307 318.834C65.0813 309.403 73.6646 268.956 82.089 236.686C83.7779 230.163 87.9299 224.549 93.6721 221.024C99.4144 217.499 106.3 216.337 112.881 217.783C117.65 218.836 122.032 221.199 125.533 224.605C129.034 228.01 131.517 232.325 132.701 237.064C134.287 243.521 132.922 251.115 131.926 256.661C131.458 259.268 131.088 261.328 131.214 262.34C131.703 266.252 134.419 327.596 132.673 330.216C132.487 330.495 131.949 330.621 131.134 330.621Z" fill="#4E37C4"/>
<path d="M109.348 330.73C110.305 330.017 111.095 329.103 111.66 328.053C112.226 327.002 112.555 325.841 112.623 324.649C112.691 323.458 112.497 322.266 112.055 321.158C111.613 320.05 110.933 319.052 110.064 318.235L110.432 243.898L92.9241 246.814L98.0671 318.968C96.7912 320.519 96.1289 322.485 96.2057 324.493C96.2824 326.5 97.0928 328.41 98.4834 329.859C99.8739 331.309 101.748 332.199 103.75 332.359C105.753 332.519 107.745 331.94 109.348 330.73Z" fill="#FFB8B8"/>
<path d="M113.398 291.638H94.5394C93.6388 291.635 92.7754 291.278 92.1357 290.645C91.496 290.011 91.1314 289.151 91.1205 288.25L90.6575 237.125C90.6415 235.357 90.9761 233.604 91.642 231.966C92.3079 230.329 93.2919 228.839 94.5371 227.584C95.7822 226.329 97.2638 225.334 98.8962 224.655C100.529 223.976 102.279 223.628 104.047 223.63C105.815 223.632 107.565 223.985 109.196 224.667C110.826 225.35 112.306 226.349 113.548 227.607C114.79 228.865 115.77 230.357 116.432 231.997C117.094 233.636 117.424 235.39 117.404 237.158L116.816 288.258C116.803 289.157 116.437 290.015 115.798 290.647C115.159 291.279 114.297 291.635 113.398 291.638Z" fill="#4E37C4"/>
<path d="M109.617 212.222C101.073 212.237 93.013 205.484 91.5325 197.07C91.0024 193.764 91.2414 190.381 92.2309 187.183C93.3052 183.542 95.1476 180.174 97.6339 177.305C100.12 174.436 103.193 172.134 106.644 170.554C110.095 168.973 113.845 168.151 117.641 168.142C121.437 168.134 125.191 168.939 128.65 170.504C130.935 171.538 133.187 173.024 134.233 175.304C135.28 177.584 134.625 180.77 132.335 181.796C130.839 182.467 128.962 182.137 127.635 183.1C125.728 184.482 126.219 187.424 127.07 189.619C127.921 191.815 128.884 194.472 127.457 196.345C126.127 198.09 123.469 198.036 121.376 197.379C119.282 196.722 117.216 195.622 115.033 195.846C111.849 196.172 109.562 199.339 109.138 202.511C108.715 205.683 109.711 208.854 110.696 211.899L109.617 212.222Z" fill="#2F2E41"/>
<path d="M691.464 330.147H204.588C201.264 330.144 198.078 328.822 195.728 326.472C193.377 324.121 192.056 320.935 192.052 317.612V17.3937C192.054 14.9588 193.023 12.6245 194.745 10.9027C196.466 9.18093 198.801 8.2124 201.236 8.20959H694.657C697.134 8.21241 699.509 9.19766 701.261 10.9492C703.012 12.7007 703.997 15.0755 704 17.5525V317.612C703.996 320.935 702.674 324.121 700.324 326.472C697.974 328.822 694.788 330.144 691.464 330.147Z" fill="#F2F2F2"/>
<path d="M675.722 314.32H221.966C215.315 314.32 209.903 309.253 209.903 303.024V41.5905C209.903 36.9711 213.913 33.2128 218.842 33.2128H678.698C683.709 33.2128 687.785 37.0331 687.785 41.7285V303.024C687.785 309.253 682.374 314.32 675.722 314.32Z" fill="white"/>
<path d="M703.825 18.9559H191.876V12.5737C191.881 9.23909 193.208 6.04255 195.567 3.68535C197.925 1.32814 201.123 0.00278027 204.457 1.52588e-05H691.244C694.579 0.00275215 697.776 1.3281 700.135 3.68531C702.493 6.04252 703.821 9.23908 703.825 12.5737V18.9559Z" fill="#3F3D56"/>
<path d="M214.741 12.7512C216.538 12.7512 217.995 11.2942 217.995 9.49688C217.995 7.69956 216.538 6.24255 214.741 6.24255C212.943 6.24255 211.486 7.69956 211.486 9.49688C211.486 11.2942 212.943 12.7512 214.741 12.7512Z" fill="white"/>
<path d="M227.093 12.7512C228.891 12.7512 230.348 11.2942 230.348 9.49688C230.348 7.69956 228.891 6.24255 227.093 6.24255C225.296 6.24255 223.839 7.69956 223.839 9.49688C223.839 11.2942 225.296 12.7512 227.093 12.7512Z" fill="white"/>
<path d="M239.446 12.7512C241.243 12.7512 242.7 11.2942 242.7 9.49688C242.7 7.69956 241.243 6.24255 239.446 6.24255C237.649 6.24255 236.192 7.69956 236.192 9.49688C236.192 11.2942 237.649 12.7512 239.446 12.7512Z" fill="white"/>
<path d="M438.079 90.3756H349.334C348.011 90.3756 346.743 89.85 345.807 88.9144C344.871 87.9789 344.346 86.71 344.346 85.387C344.346 84.0639 344.871 82.795 345.807 81.8595C346.743 80.9239 348.011 80.3983 349.334 80.3983H438.079C439.402 80.3983 440.671 80.9239 441.607 81.8595C442.542 82.795 443.068 84.0639 443.068 85.387C443.068 86.71 442.542 87.9789 441.607 88.9144C440.671 89.85 439.402 90.3756 438.079 90.3756Z" fill="#CCCCCC"/>
<path d="M548.354 90.3756H459.609C458.286 90.3756 457.017 89.85 456.082 88.9144C455.146 87.9789 454.621 86.71 454.621 85.387C454.621 84.0639 455.146 82.795 456.082 81.8595C457.017 80.9239 458.286 80.3983 459.609 80.3983H548.354C549.677 80.3983 550.946 80.9239 551.881 81.8595C552.817 82.795 553.343 84.0639 553.343 85.387C553.343 86.71 552.817 87.9789 551.881 88.9144C550.946 89.85 549.677 90.3756 548.354 90.3756Z" fill="#CCCCCC"/>
<path d="M548.354 109.28H393.969C392.646 109.28 391.377 108.754 390.442 107.819C389.506 106.883 388.981 105.614 388.981 104.291C388.981 102.968 389.506 101.699 390.442 100.764C391.377 99.8281 392.646 99.3026 393.969 99.3026H548.354C549.677 99.3026 550.946 99.8281 551.882 100.764C552.817 101.699 553.343 102.968 553.343 104.291C553.343 105.614 552.817 106.883 551.882 107.819C550.946 108.754 549.677 109.28 548.354 109.28Z" fill="#CCCCCC"/>
<path d="M438.079 71.2088H349.334C348.012 71.2071 346.745 70.6808 345.811 69.7455C344.877 68.8101 344.352 67.5422 344.352 66.2202C344.352 64.8982 344.877 63.6302 345.811 62.6948C346.745 61.7595 348.012 61.2332 349.334 61.2315H438.079C438.735 61.2307 439.384 61.3592 439.99 61.6095C440.596 61.8598 441.147 62.2272 441.611 62.6905C442.075 63.1538 442.443 63.704 442.694 64.3097C442.945 64.9153 443.074 65.5645 443.074 66.2202C443.074 66.8758 442.945 67.525 442.694 68.1306C442.443 68.7363 442.075 69.2865 441.611 69.7498C441.147 70.2131 440.596 70.5805 439.99 70.8308C439.384 71.0811 438.735 71.2096 438.079 71.2088Z" fill="#CCCCCC"/>
<path d="M486.915 71.4713H461.71C460.387 71.4713 459.118 70.9457 458.182 70.0102C457.247 69.0746 456.721 67.8058 456.721 66.4827C456.721 65.1596 457.247 63.8908 458.182 62.9552C459.118 62.0197 460.387 61.4941 461.71 61.4941H486.915C488.238 61.4941 489.507 62.0197 490.443 62.9552C491.378 63.8908 491.904 65.1596 491.904 66.4827C491.904 67.8058 491.378 69.0746 490.443 70.0102C489.507 70.9457 488.238 71.4713 486.915 71.4713Z" fill="#CCCCCC"/>
<path d="M374.54 109.28H349.334C348.012 109.278 346.745 108.752 345.811 107.816C344.877 106.881 344.352 105.613 344.352 104.291C344.352 102.969 344.877 101.701 345.811 100.766C346.745 99.8305 348.012 99.3042 349.334 99.3026H374.54C375.196 99.3018 375.845 99.4302 376.451 99.6805C377.057 99.9309 377.608 100.298 378.072 100.762C378.535 101.225 378.903 101.775 379.155 102.381C379.406 102.986 379.535 103.636 379.535 104.291C379.535 104.947 379.406 105.596 379.155 106.202C378.903 106.807 378.535 107.358 378.072 107.821C377.608 108.284 377.057 108.651 376.451 108.902C375.845 109.152 375.196 109.281 374.54 109.28Z" fill="#CCCCCC"/>
<path d="M438.079 267.397H349.334C348.011 267.397 346.743 266.872 345.807 265.936C344.871 265 344.346 263.732 344.346 262.409C344.346 261.085 344.871 259.817 345.807 258.881C346.743 257.945 348.011 257.42 349.334 257.42H438.079C438.734 257.42 439.383 257.549 439.988 257.8C440.594 258.05 441.144 258.418 441.607 258.881C442.07 259.344 442.438 259.894 442.688 260.499C442.939 261.105 443.068 261.753 443.068 262.409C443.068 263.064 442.939 263.712 442.688 264.318C442.438 264.923 442.07 265.473 441.607 265.936C441.144 266.399 440.594 266.767 439.988 267.017C439.383 267.268 438.734 267.397 438.079 267.397Z" fill="#CCCCCC"/>
<path d="M548.354 267.397H459.609C458.286 267.397 457.017 266.872 456.082 265.936C455.146 265 454.621 263.732 454.621 262.409C454.621 261.085 455.146 259.817 456.082 258.881C457.017 257.945 458.286 257.42 459.609 257.42H548.354C549.009 257.42 549.658 257.549 550.263 257.8C550.868 258.05 551.418 258.418 551.881 258.881C552.345 259.344 552.712 259.894 552.963 260.499C553.214 261.105 553.343 261.753 553.343 262.409C553.343 263.064 553.214 263.712 552.963 264.318C552.712 264.923 552.345 265.473 551.881 265.936C551.418 266.399 550.868 266.767 550.263 267.017C549.658 267.268 549.009 267.397 548.354 267.397Z" fill="#CCCCCC"/>
<path d="M548.354 286.301H393.969C392.646 286.301 391.377 285.776 390.442 284.84C389.506 283.905 388.981 282.636 388.981 281.313C388.981 279.99 389.506 278.721 390.442 277.785C391.377 276.85 392.646 276.324 393.969 276.324H548.354C549.01 276.323 549.659 276.452 550.265 276.702C550.871 276.952 551.422 277.32 551.885 277.783C552.349 278.246 552.717 278.797 552.968 279.402C553.22 280.008 553.349 280.657 553.349 281.313C553.349 281.968 553.22 282.618 552.968 283.223C552.717 283.829 552.349 284.379 551.885 284.842C551.422 285.306 550.871 285.673 550.265 285.923C549.659 286.174 549.01 286.302 548.354 286.301Z" fill="#CCCCCC"/>
<path d="M438.079 248.23H349.334C348.011 248.23 346.743 247.705 345.807 246.769C344.871 245.834 344.346 244.565 344.346 243.242C344.346 241.919 344.871 240.65 345.807 239.714C346.743 238.779 348.011 238.253 349.334 238.253H438.079C439.402 238.253 440.671 238.779 441.607 239.714C442.542 240.65 443.068 241.919 443.068 243.242C443.068 244.565 442.542 245.834 441.607 246.769C440.671 247.705 439.402 248.23 438.079 248.23Z" fill="#CCCCCC"/>
<path d="M486.915 248.493H461.71C460.387 248.493 459.118 247.967 458.182 247.032C457.247 246.096 456.721 244.827 456.721 243.504C456.721 242.181 457.247 240.912 458.182 239.977C459.118 239.041 460.387 238.516 461.71 238.516H486.915C488.238 238.516 489.507 239.041 490.443 239.977C491.378 240.912 491.904 242.181 491.904 243.504C491.904 244.827 491.378 246.096 490.443 247.032C489.507 247.967 488.238 248.493 486.915 248.493Z" fill="#CCCCCC"/>
<path d="M374.54 286.301H349.334C348.011 286.301 346.743 285.776 345.807 284.84C344.871 283.905 344.346 282.636 344.346 281.313C344.346 279.99 344.871 278.721 345.807 277.785C346.743 276.85 348.011 276.324 349.334 276.324H374.54C375.196 276.323 375.845 276.452 376.451 276.702C377.057 276.952 377.608 277.32 378.072 277.783C378.535 278.246 378.903 278.797 379.155 279.402C379.406 280.008 379.535 280.657 379.535 281.313C379.535 281.968 379.406 282.618 379.155 283.223C378.903 283.829 378.535 284.379 378.072 284.842C377.608 285.306 377.057 285.673 376.451 285.923C375.845 286.174 375.196 286.302 374.54 286.301Z" fill="#CCCCCC"/>
<path d="M414.902 213.84C413.019 213.845 411.21 213.104 409.87 211.781L376.51 178.839C375.855 178.192 375.335 177.422 374.98 176.573C374.625 175.724 374.443 174.812 374.443 173.892C374.443 172.971 374.625 172.06 374.98 171.211C375.335 170.362 375.855 169.591 376.51 168.945L409.735 136.135C411.119 134.775 412.984 134.016 414.924 134.022C416.865 134.028 418.725 134.799 420.101 136.168C421.477 137.548 422.251 139.418 422.251 141.367C422.251 143.317 421.478 145.186 420.101 146.566L395.412 171.256C394.643 172.027 394.211 173.071 394.211 174.16C394.211 175.25 394.643 176.294 395.412 177.065L419.967 201.62C420.969 202.621 421.653 203.897 421.93 205.286C422.206 206.676 422.065 208.116 421.522 209.425C420.98 210.733 420.061 211.852 418.883 212.638C417.704 213.424 416.319 213.842 414.902 213.84V213.84Z" fill="#4E37C4"/>
<path d="M468.058 213.84C466.642 213.842 465.256 213.424 464.078 212.638C462.899 211.852 461.98 210.733 461.438 209.425C460.895 208.116 460.754 206.676 461.031 205.286C461.308 203.897 461.991 202.621 462.993 201.62L487.548 177.065C488.317 176.294 488.749 175.25 488.749 174.16C488.749 173.071 488.317 172.027 487.548 171.256L462.859 146.566C462.177 145.884 461.635 145.073 461.265 144.181C460.896 143.289 460.706 142.333 460.706 141.367C460.706 140.402 460.896 139.445 461.266 138.553C461.635 137.661 462.177 136.851 462.86 136.168C464.235 134.799 466.095 134.028 468.036 134.022C469.976 134.016 471.841 134.775 473.225 136.135L506.45 168.945C507.105 169.591 507.625 170.362 507.98 171.211C508.335 172.06 508.517 172.971 508.517 173.892C508.517 174.812 508.335 175.724 507.98 176.573C507.625 177.422 507.105 178.192 506.45 178.839L473.09 211.781C471.75 213.104 469.941 213.844 468.058 213.84Z" fill="#4E37C4"/>
<path d="M32.9524 81.7139L31.9665 96.5173L46.77 97.5031L47.7558 82.6997L32.9524 81.7139Z" fill="#E6E6E6"/>
<path d="M23.4012 89.5744L41.3768 90.7715L40.1797 108.747L22.2041 107.55L23.4012 89.5744ZM40.5432 91.501L24.1307 90.408L23.0377 106.82L39.4502 107.913L40.5432 91.501Z" fill="#CCCCCC"/>
<path d="M116.609 37.8172L102.104 40.934L105.221 55.4391L119.726 52.3224L116.609 37.8172Z" fill="#E6E6E6"/>
<path d="M106.428 30.7915L110.213 48.4049L92.5992 52.1895L88.8146 34.5761L106.428 30.7915ZM109.282 47.8036L105.827 31.7219L89.745 35.1773L93.2005 51.2591L109.282 47.8036Z" fill="#CCCCCC"/>
<path d="M101.368 107.476L90.5395 117.618L100.682 128.447L111.51 118.304L101.368 107.476Z" fill="#E6E6E6"/>
<path d="M112.288 105.959L99.1401 118.275L86.8244 105.126L99.9728 92.8106L112.288 105.959ZM99.1763 117.167L111.181 105.923L99.9365 93.9177L87.9315 105.162L99.1763 117.167Z" fill="#CCCCCC"/>
</g>
<defs>
<clipPath id="clip0">
<rect width="704" height="455.914" fill="white"/>
</clipPath>
</defs>
</svg>
