<svg width="800" height="800" viewBox="0 0 800 800" fill="none" xmlns="http://www.w3.org/2000/svg">
<rect x="-3.05176e-05" width="800" height="800" fill="#E3DB4F"/>
<path d="M258.1 475.717L267.346 498.794L276.593 475.717H281.429V504H277.7V492.986L278.05 481.098L268.764 504H265.909L256.643 481.156L257.012 492.986V504H253.283V475.717H258.1ZM303.982 496.619H292.133L289.471 504H285.625L296.425 475.717H299.689L310.509 504H306.682L303.982 496.619ZM293.259 493.549H302.875L298.057 480.321L293.259 493.549ZM331.332 478.787H322.241V504H318.531V478.787H309.46V475.717H331.332V478.787ZM351.514 490.927H339.257V500.95H353.496V504H335.528V475.717H353.302V478.787H339.257V487.877H351.514V490.927ZM368.511 492.559H361.868V504H358.119V475.717H367.482C370.667 475.717 373.115 476.443 374.824 477.893C376.547 479.343 377.408 481.454 377.408 484.225C377.408 485.987 376.929 487.521 375.97 488.829C375.025 490.137 373.704 491.115 372.008 491.762L378.651 503.767V504H374.649L368.511 492.559ZM361.868 489.509H367.598C369.45 489.509 370.92 489.03 372.008 488.072C373.108 487.113 373.659 485.831 373.659 484.225C373.659 482.477 373.134 481.137 372.085 480.205C371.049 479.272 369.547 478.799 367.579 478.787H361.868V489.509ZM386.654 504H382.924V475.717H386.654V504ZM409.459 496.619H397.61L394.948 504H391.102L401.903 475.717H405.166L415.986 504H412.159L409.459 496.619ZM398.736 493.549H408.352L403.534 480.321L398.736 493.549ZM423.794 504H420.065V475.717H423.794V504ZM438.965 491.393C435.767 490.474 433.436 489.347 431.972 488.013C430.522 486.667 429.797 485.009 429.797 483.041C429.797 480.813 430.684 478.974 432.458 477.524C434.245 476.061 436.563 475.329 439.412 475.329C441.354 475.329 443.083 475.704 444.598 476.456C446.127 477.207 447.305 478.243 448.134 479.564C448.976 480.884 449.396 482.328 449.396 483.895H445.647C445.647 482.186 445.103 480.846 444.016 479.874C442.928 478.89 441.393 478.398 439.412 478.398C437.573 478.398 436.136 478.806 435.1 479.622C434.077 480.425 433.565 481.545 433.565 482.982C433.565 484.135 434.051 485.113 435.022 485.915C436.006 486.705 437.67 487.431 440.014 488.091C442.371 488.751 444.21 489.483 445.531 490.286C446.865 491.076 447.849 492.002 448.483 493.064C449.131 494.126 449.455 495.375 449.455 496.813C449.455 499.105 448.561 500.944 446.774 502.329C444.987 503.702 442.598 504.388 439.606 504.388C437.664 504.388 435.851 504.019 434.167 503.281C432.484 502.53 431.182 501.507 430.263 500.212C429.356 498.917 428.903 497.447 428.903 495.803H432.652C432.652 497.512 433.28 498.865 434.536 499.863C435.805 500.847 437.495 501.339 439.606 501.339C441.575 501.339 443.083 500.937 444.132 500.134C445.181 499.332 445.706 498.237 445.706 496.852C445.706 495.466 445.22 494.398 444.249 493.647C443.278 492.882 441.516 492.131 438.965 491.393ZM464.12 504V475.717H472.104C474.565 475.717 476.74 476.261 478.631 477.349C480.522 478.437 481.978 479.984 483.001 481.992C484.037 483.999 484.562 486.304 484.575 488.907V490.713C484.575 493.381 484.057 495.719 483.021 497.726C481.998 499.733 480.528 501.274 478.611 502.349C476.708 503.424 474.487 503.974 471.949 504H464.12ZM467.85 478.787V500.95H471.774C474.649 500.95 476.883 500.057 478.475 498.27C480.081 496.483 480.884 493.938 480.884 490.636V488.985C480.884 485.773 480.127 483.28 478.611 481.506C477.109 479.719 474.972 478.812 472.201 478.787H467.85ZM506.214 490.927H493.957V500.95H508.195V504H490.227V475.717H508.001V478.787H493.957V487.877H506.214V490.927ZM543.51 495.026C543.16 498.017 542.053 500.329 540.188 501.96C538.336 503.579 535.869 504.388 532.787 504.388C529.446 504.388 526.766 503.191 524.745 500.795C522.738 498.399 521.735 495.194 521.735 491.18V488.46C521.735 485.831 522.201 483.52 523.133 481.525C524.079 479.531 525.412 478.003 527.135 476.941C528.857 475.866 530.851 475.329 533.118 475.329C536.122 475.329 538.531 476.171 540.344 477.854C542.157 479.525 543.212 481.843 543.51 484.808H539.761C539.437 482.555 538.731 480.923 537.644 479.913C536.569 478.903 535.06 478.398 533.118 478.398C530.735 478.398 528.864 479.279 527.504 481.04C526.157 482.801 525.484 485.307 525.484 488.557V491.296C525.484 494.365 526.125 496.806 527.407 498.619C528.689 500.432 530.482 501.339 532.787 501.339C534.859 501.339 536.446 500.873 537.546 499.94C538.66 498.995 539.398 497.357 539.761 495.026H543.51ZM570.375 490.772C570.375 493.543 569.908 495.965 568.976 498.037C568.044 500.096 566.723 501.669 565.013 502.757C563.304 503.845 561.31 504.388 559.03 504.388C556.803 504.388 554.828 503.845 553.106 502.757C551.383 501.656 550.043 500.096 549.085 498.075C548.14 496.042 547.654 493.692 547.628 491.024V488.985C547.628 486.265 548.101 483.863 549.046 481.778C549.991 479.693 551.325 478.1 553.048 476.999C554.783 475.886 556.764 475.329 558.992 475.329C561.258 475.329 563.252 475.879 564.974 476.98C566.71 478.068 568.044 479.654 568.976 481.739C569.908 483.811 570.375 486.226 570.375 488.985V490.772ZM566.664 488.946C566.664 485.592 565.991 483.021 564.644 481.234C563.297 479.434 561.413 478.534 558.992 478.534C556.635 478.534 554.776 479.434 553.417 481.234C552.07 483.021 551.377 485.508 551.338 488.693V490.772C551.338 494.022 552.018 496.58 553.378 498.444C554.75 500.296 556.635 501.222 559.03 501.222C561.439 501.222 563.304 500.348 564.625 498.6C565.946 496.839 566.626 494.32 566.664 491.044V488.946ZM597.705 504H593.956L579.718 482.205V504H575.969V475.717H579.718L593.995 497.609V475.717H597.705V504ZM612.662 491.393C609.464 490.474 607.133 489.347 605.67 488.013C604.219 486.667 603.494 485.009 603.494 483.041C603.494 480.813 604.381 478.974 606.155 477.524C607.942 476.061 610.26 475.329 613.109 475.329C615.052 475.329 616.781 475.704 618.296 476.456C619.824 477.207 621.002 478.243 621.831 479.564C622.673 480.884 623.094 482.328 623.094 483.895H619.345C619.345 482.186 618.801 480.846 617.713 479.874C616.625 478.89 615.091 478.398 613.109 478.398C611.27 478.398 609.833 478.806 608.797 479.622C607.774 480.425 607.262 481.545 607.262 482.982C607.262 484.135 607.748 485.113 608.719 485.915C609.703 486.705 611.367 487.431 613.711 488.091C616.068 488.751 617.907 489.483 619.228 490.286C620.562 491.076 621.546 492.002 622.181 493.064C622.828 494.126 623.152 495.375 623.152 496.813C623.152 499.105 622.258 500.944 620.471 502.329C618.684 503.702 616.295 504.388 613.303 504.388C611.361 504.388 609.548 504.019 607.865 503.281C606.181 502.53 604.88 501.507 603.96 500.212C603.054 498.917 602.6 497.447 602.6 495.803H606.349C606.349 497.512 606.977 498.865 608.234 499.863C609.503 500.847 611.193 501.339 613.303 501.339C615.272 501.339 616.781 500.937 617.829 500.134C618.878 499.332 619.403 498.237 619.403 496.852C619.403 495.466 618.917 494.398 617.946 493.647C616.975 492.882 615.214 492.131 612.662 491.393ZM647.491 478.787H638.4V504H634.69V478.787H625.619V475.717H647.491V478.787ZM662.06 492.559H655.417V504H651.668V475.717H661.03C664.216 475.717 666.664 476.443 668.373 477.893C670.095 479.343 670.957 481.454 670.957 484.225C670.957 485.987 670.477 487.521 669.519 488.829C668.574 490.137 667.253 491.115 665.556 491.762L672.2 503.767V504H668.198L662.06 492.559ZM655.417 489.509H661.147C662.999 489.509 664.469 489.03 665.556 488.072C666.657 487.113 667.208 485.831 667.208 484.225C667.208 482.477 666.683 481.137 665.634 480.205C664.598 479.272 663.096 478.799 661.128 478.787H655.417V489.509ZM696.112 475.717V494.948C696.099 497.616 695.257 499.798 693.586 501.494C691.929 503.191 689.676 504.142 686.827 504.35L685.836 504.388C682.741 504.388 680.274 503.553 678.435 501.883C676.596 500.212 675.664 497.914 675.638 494.987V475.717H679.329V494.87C679.329 496.916 679.892 498.509 681.019 499.649C682.145 500.775 683.751 501.339 685.836 501.339C687.947 501.339 689.559 500.775 690.673 499.649C691.799 498.522 692.363 496.936 692.363 494.89V475.717H696.112ZM722.802 495.026C722.452 498.017 721.345 500.329 719.48 501.96C717.628 503.579 715.161 504.388 712.079 504.388C708.738 504.388 706.057 503.191 704.037 500.795C702.03 498.399 701.026 495.194 701.026 491.18V488.46C701.026 485.831 701.492 483.52 702.425 481.525C703.37 479.531 704.704 478.003 706.426 476.941C708.149 475.866 710.143 475.329 712.409 475.329C715.414 475.329 717.822 476.171 719.635 477.854C721.448 479.525 722.504 481.843 722.802 484.808H719.053C718.729 482.555 718.023 480.923 716.935 479.913C715.86 478.903 714.352 478.398 712.409 478.398C710.026 478.398 708.155 479.279 706.795 481.04C705.449 482.801 704.775 485.307 704.775 488.557V491.296C704.775 494.365 705.416 496.806 706.698 498.619C707.98 500.432 709.774 501.339 712.079 501.339C714.151 501.339 715.737 500.873 716.838 499.94C717.952 498.995 718.69 497.357 719.053 495.026H722.802ZM713.303 504.175L713.07 505.185C715.051 505.535 716.042 506.655 716.042 508.545C716.042 509.802 715.524 510.792 714.488 511.517C713.452 512.256 712.008 512.625 710.156 512.625L710.02 510.546C711.043 510.546 711.833 510.378 712.39 510.041C712.96 509.704 713.244 509.232 713.244 508.623C713.244 508.053 713.037 507.632 712.623 507.361C712.208 507.089 711.367 506.894 710.098 506.778L710.719 504.175H713.303ZM743.528 496.619H731.679L729.017 504H725.171L735.972 475.717H739.235L750.055 504H746.228L743.528 496.619ZM732.805 493.549H742.421L737.603 480.321L732.805 493.549ZM744.577 468.763C744.577 470.162 744.175 471.295 743.372 472.163C742.583 473.03 741.592 473.464 740.4 473.464C739.869 473.464 739.41 473.399 739.021 473.27C738.633 473.14 738.121 472.875 737.487 472.473C736.865 472.072 736.412 471.832 736.127 471.755C735.855 471.664 735.538 471.619 735.175 471.619C734.644 471.619 734.191 471.826 733.815 472.24C733.44 472.642 733.252 473.16 733.252 473.794L730.843 473.658C730.843 472.273 731.232 471.127 732.009 470.22C732.799 469.314 733.796 468.86 735 468.86C735.454 468.86 735.861 468.925 736.224 469.055C736.587 469.184 737.079 469.437 737.7 469.812C738.322 470.188 738.795 470.434 739.118 470.55C739.455 470.667 739.824 470.725 740.226 470.725C740.782 470.725 741.242 470.505 741.605 470.065C741.98 469.624 742.168 469.113 742.168 468.53L744.577 468.763ZM775.385 490.772C775.385 493.543 774.918 495.965 773.986 498.037C773.054 500.096 771.733 501.669 770.023 502.757C768.314 503.845 766.32 504.388 764.041 504.388C761.813 504.388 759.838 503.845 758.116 502.757C756.394 501.656 755.053 500.096 754.095 498.075C753.15 496.042 752.664 493.692 752.638 491.024V488.985C752.638 486.265 753.111 483.863 754.056 481.778C755.001 479.693 756.335 478.1 758.058 476.999C759.793 475.886 761.774 475.329 764.002 475.329C766.268 475.329 768.262 475.879 769.985 476.98C771.72 478.068 773.054 479.654 773.986 481.739C774.918 483.811 775.385 486.226 775.385 488.985V490.772ZM771.674 488.946C771.674 485.592 771.001 483.021 769.654 481.234C768.308 479.434 766.423 478.534 764.002 478.534C761.645 478.534 759.786 479.434 758.427 481.234C757.08 483.021 756.387 485.508 756.348 488.693V490.772C756.348 494.022 757.028 496.58 758.388 498.444C759.761 500.296 761.645 501.222 764.041 501.222C766.449 501.222 768.314 500.348 769.635 498.6C770.956 496.839 771.636 494.32 771.674 491.044V488.946Z" fill="#263379"/>
<path d="M77.1063 364.527V452.279H54.6283V376.002L77.1063 364.527Z" fill="#263379"/>
<path d="M148.185 321.326L23.0376 376.002L20 377.352L148.185 292.975L288.521 376.677L283.661 374.652L148.185 321.326Z" fill="#263379"/>
<path d="M235.06 293.65C235.06 293.65 231.415 326.726 231.415 328.076C231.415 329.426 250.248 337.526 251.463 338.201C252.678 338.876 249.033 323.351 249.033 323.351L243.565 303.1L239.92 290.95L238.705 286.9C238.098 284.875 236.275 286.9 236.275 286.9L235.06 293.65Z" fill="#263379"/>
<path d="M251.463 374.652L231.415 365.877V452.279H780V432.028H251.463V374.652Z" fill="#263379"/>
<path d="M77.1063 364.527V452.279H54.6283V376.002L77.1063 364.527Z" stroke="#263379" stroke-width="1.35003"/>
<path d="M148.185 321.326L23.0376 376.002L20 377.352L148.185 292.975L288.521 376.677L283.661 374.652L148.185 321.326Z" stroke="#263379" stroke-width="1.35003"/>
<path d="M235.06 293.65C235.06 293.65 231.415 326.726 231.415 328.076C231.415 329.426 250.248 337.526 251.463 338.201C252.678 338.876 249.033 323.351 249.033 323.351L243.565 303.1L239.92 290.95L238.705 286.9C238.098 284.875 236.275 286.9 236.275 286.9L235.06 293.65Z" stroke="#263379" stroke-width="1.35003"/>
<path d="M251.463 374.652L231.415 365.877V452.279H780V432.028H251.463V374.652Z" stroke="#263379" stroke-width="1.35003"/>
<path d="M340.342 409C335.295 409 330.614 408.07 326.298 406.211C322.049 404.286 318.33 401.696 315.143 398.442C312.022 395.122 309.566 391.205 307.773 386.69C306.046 382.175 305.183 377.294 305.183 372.049C305.183 366.737 306.046 361.889 307.773 357.507C309.566 353.125 312.022 349.406 315.143 346.352C318.33 343.231 322.049 340.841 326.298 339.181C330.614 337.454 335.295 336.591 340.342 336.591H379.584V349.24H340.342C337.088 349.24 334.067 349.838 331.278 351.033C328.556 352.162 326.199 353.755 324.207 355.814C322.215 357.872 320.654 360.329 319.526 363.184C318.397 366.039 317.832 369.193 317.832 372.646C317.832 376.033 318.397 379.187 319.526 382.108C320.654 385.03 322.215 387.553 324.207 389.678C326.199 391.736 328.556 393.363 331.278 394.558C334.067 395.753 337.088 396.351 340.342 396.351H379.584V409H340.342ZM454.593 336.591H466.943V377.029C466.943 382.606 466.213 387.486 464.752 391.67C463.291 395.786 461 399.206 457.879 401.928C454.759 404.651 450.708 406.676 445.728 408.004C440.815 409.332 434.839 409.996 427.8 409.996C420.828 409.996 414.852 409.332 409.872 408.004C404.959 406.676 400.942 404.651 397.821 401.928C394.7 399.206 392.409 395.786 390.949 391.67C389.488 387.486 388.757 382.606 388.757 377.029V336.591H401.805V377.029C401.805 380.681 402.236 383.801 403.1 386.391C404.029 388.98 405.49 391.105 407.482 392.765C409.54 394.425 412.263 395.654 415.649 396.45C419.036 397.181 423.219 397.546 428.199 397.546C433.179 397.546 437.362 397.181 440.748 396.45C444.135 395.654 446.824 394.425 448.816 392.765C450.874 391.105 452.335 388.98 453.198 386.391C454.128 383.801 454.593 380.681 454.593 377.029V336.591ZM479.061 409V336.591H491.711V409H479.061ZM580.414 409L569.558 390.773H535.296L541.271 380.515H563.482L547.347 353.423L514.479 409H500.037L541.67 339.679C542.4 338.417 543.263 337.421 544.259 336.691C545.255 335.96 546.451 335.595 547.845 335.595C549.239 335.595 550.401 335.96 551.331 336.691C552.327 337.421 553.19 338.417 553.921 339.679L595.653 409H580.414ZM603.348 409V336.591H656.335C659.854 336.591 663.041 336.99 665.896 337.786C668.818 338.583 671.308 339.778 673.366 341.372C675.425 342.899 677.018 344.858 678.147 347.248C679.276 349.572 679.84 352.261 679.84 355.316C679.84 357.64 679.575 359.665 679.043 361.391C678.512 363.118 677.782 364.612 676.852 365.873C675.923 367.069 674.827 368.098 673.565 368.961C672.37 369.758 671.109 370.355 669.781 370.754C673.101 371.816 675.823 373.742 677.948 376.531C680.073 379.319 681.135 382.839 681.135 387.088C681.135 390.408 680.571 393.429 679.442 396.152C678.379 398.808 676.819 401.098 674.761 403.024C672.769 404.95 670.312 406.444 667.39 407.506C664.535 408.502 661.348 409 657.829 409H603.348ZM625.16 377.527V366.869H656.434C660.02 366.869 662.676 366.205 664.402 364.877C666.129 363.549 666.992 361.292 666.992 358.105C666.992 356.179 666.627 354.652 665.896 353.523C665.166 352.328 664.103 351.431 662.709 350.834C661.381 350.17 659.754 349.738 657.829 349.539C655.969 349.34 653.878 349.24 651.554 349.24H615.997V396.45H652.649C654.907 396.45 656.999 396.284 658.924 395.952C660.85 395.62 662.51 395.089 663.904 394.359C665.299 393.562 666.361 392.566 667.091 391.371C667.888 390.176 668.287 388.682 668.287 386.889C668.287 383.901 667.357 381.61 665.498 380.017C663.639 378.357 660.916 377.527 657.331 377.527H625.16ZM762.008 409L751.152 390.773H716.89L722.866 380.515H745.076L728.941 353.423L696.073 409H681.631L723.264 339.679C723.994 338.417 724.858 337.421 725.854 336.691C726.85 335.96 728.045 335.595 729.439 335.595C730.834 335.595 731.996 335.96 732.925 336.691C733.921 337.421 734.784 338.417 735.515 339.679L777.247 409H762.008ZM719.678 332.109V326.432L745.176 318.763V326.631L719.678 332.109Z" fill="#263379"/>
</svg>
