<svg width="60" height="60" viewBox="0 0 60 60" fill="none" xmlns="http://www.w3.org/2000/svg">
<path d="M30 0C13.5118 0 0 13.629 0 30.1172C0 46.5097 13.3887 60 30 60C46.5907 60 60 46.5298 60 30.1172C60 13.629 46.4882 0 30 0ZM35.2734 55.957C33.5861 56.3086 31.7931 56.4844 30 56.4844C28.2069 56.4844 26.4139 56.3086 24.7266 55.957V47.7306C24.7266 45.7617 25.2539 45.0586 25.957 44.1092C26.315 43.7 26.5311 43.3328 28.1364 40.9103L25.4297 40.4883C18.4685 39.4688 15.7265 35.8475 14.6365 33.035C13.2303 29.2735 13.9687 24.5622 16.5001 21.5744C16.8869 21.1171 17.2032 20.3435 16.9221 19.5351C16.3943 17.9178 16.4648 15.3516 16.8164 14.3669C18.6804 14.6333 20.5971 15.9686 22.1956 16.9336C22.9321 17.3634 23.3185 17.2499 23.6719 17.2852C24.9564 17.0178 26.96 16.371 30.0352 16.371C31.9336 16.371 33.9377 16.6521 35.9065 17.2147C36.2585 17.2064 36.8243 17.5058 37.8049 16.9336C39.4757 15.9155 41.3274 14.626 43.1836 14.3669C43.5352 15.3516 43.6057 17.9178 43.0783 19.5351C42.7968 20.3435 43.1131 21.1171 43.5004 21.5744C46.0313 24.5627 46.7697 29.2735 45.3635 33.035C44.2735 35.8475 41.5315 39.4688 34.5703 40.4883L31.8636 40.9103C33.5229 43.4143 33.6978 43.7146 34.0434 44.1092C34.7461 45.0586 35.2734 45.7617 35.2734 47.7306V55.957ZM38.7891 54.9376V47.7306C38.7891 45.7265 38.367 44.3907 37.8044 43.4061C43.1483 41.965 46.9455 38.8005 48.6328 34.2654C50.4259 29.4846 49.6175 23.7891 46.6287 19.8514C47.1565 17.4962 47.1565 13.7343 45.8908 11.9765C45.3282 11.2033 44.5546 10.7812 43.5704 10.7812C43.5352 10.7812 43.5352 10.7812 43.5352 10.7812C40.8092 10.9286 38.6636 12.3015 36.3634 13.699C34.254 13.1364 32.1094 12.8554 29.9648 12.8554C27.7853 12.8554 25.6055 13.1717 23.6723 13.699C21.2508 12.2388 19.1258 10.925 16.3243 10.7812C15.4454 10.7812 14.6718 11.2033 14.1092 11.9765C12.8439 13.7343 12.8439 17.4962 13.3713 19.8514C10.3825 23.7891 9.57413 29.5193 11.3672 34.2654C13.0545 38.8005 16.8517 41.965 22.1956 43.4061C21.7593 44.1692 21.4142 45.1538 21.2782 46.4864C20.1988 46.8585 19.2627 46.9798 18.392 46.7239C17.4738 46.4525 16.7583 45.8395 16.1366 44.794C14.7404 42.4484 12.3624 40.5336 9.65469 40.7826L9.96368 44.2845C11.2175 44.1696 12.4654 45.4962 13.1136 46.5898C14.1829 48.3907 15.6235 49.5717 17.3964 50.0954C18.7125 50.4831 19.9155 50.4739 21.2109 50.1974V54.9376C10.9804 51.3515 3.51562 41.5782 3.51562 30.1172C3.51562 15.5626 15.4454 3.51562 30 3.51562C44.5546 3.51562 56.4844 15.5626 56.4844 30.1172C56.4844 41.5782 49.0196 51.3515 38.7891 54.9376Z" fill="#F2F2F3"/>
</svg>
