<svg width="55" height="55" viewBox="0 0 55 55" fill="none" xmlns="http://www.w3.org/2000/svg">
<path fill-rule="evenodd" clip-rule="evenodd" d="M16.2043 0.264774C19.1261 0.130264 20.0577 0.100372 27.5007 0.100372C34.9436 0.100372 35.8752 0.132755 38.7946 0.264774C41.714 0.396794 43.7067 0.862601 45.4504 1.53765C47.2763 2.22764 48.9327 3.30621 50.3028 4.70114C51.6977 6.06867 52.7738 7.72266 53.4613 9.55101C54.1388 11.2947 54.6021 13.2874 54.7366 16.2018C54.8711 19.1287 54.901 20.0603 54.901 27.5007C54.901 34.9437 54.8687 35.8753 54.7366 38.7972C54.6046 41.7116 54.1388 43.7043 53.4613 45.448C52.7738 47.2766 51.6959 48.9333 50.3028 50.3028C48.9327 51.6977 47.2763 52.7738 45.4504 53.4613C43.7067 54.1389 41.714 54.6022 38.7996 54.7367C35.8752 54.8712 34.9436 54.9011 27.5007 54.9011C20.0577 54.9011 19.1261 54.8687 16.2043 54.7367C13.2898 54.6047 11.2971 54.1389 9.55344 53.4613C7.72489 52.7737 6.06816 51.6959 4.69859 50.3028C3.30461 48.9345 2.22587 47.2785 1.53758 45.4505C0.86254 43.7068 0.399224 41.714 0.264713 38.7996C0.130203 35.8728 0.100311 34.9412 0.100311 27.5007C0.100311 20.0578 0.132693 19.1262 0.264713 16.2068C0.396733 13.2874 0.86254 11.2947 1.53758 9.55101C2.22689 7.72286 3.30645 6.06696 4.70108 4.69865C6.06871 3.30497 7.72377 2.22625 9.55095 1.53765C11.2946 0.862601 13.2874 0.399285 16.2018 0.264774H16.2043ZM38.5729 5.19684C35.6834 5.06482 34.8166 5.03742 27.5007 5.03742C20.1848 5.03742 19.3179 5.06482 16.4284 5.19684C13.7557 5.3189 12.3059 5.76477 11.3394 6.14091C10.0616 6.63909 9.14741 7.22945 8.1884 8.18846C7.27932 9.07287 6.5797 10.1495 6.14085 11.3395C5.76471 12.306 5.31883 13.7557 5.19678 16.4285C5.06476 19.318 5.03736 20.1848 5.03736 27.5007C5.03736 34.8166 5.06476 35.6835 5.19678 38.573C5.31883 41.2458 5.76471 42.6955 6.14085 43.662C6.57925 44.8501 7.27921 45.9287 8.1884 46.813C9.07269 47.7222 10.1513 48.4222 11.3394 48.8606C12.3059 49.2367 13.7557 49.6826 16.4284 49.8046C19.3179 49.9366 20.1823 49.9641 27.5007 49.9641C34.8191 49.9641 35.6834 49.9366 38.5729 49.8046C41.2457 49.6826 42.6954 49.2367 43.6619 48.8606C44.9398 48.3624 45.8539 47.772 46.8129 46.813C47.7221 45.9287 48.4221 44.8501 48.8605 43.662C49.2366 42.6955 49.6825 41.2458 49.8046 38.573C49.9366 35.6835 49.964 34.8166 49.964 27.5007C49.964 20.1848 49.9366 19.318 49.8046 16.4285C49.6825 13.7557 49.2366 12.306 48.8605 11.3395C48.3623 10.0616 47.772 9.14747 46.8129 8.18846C45.9285 7.27944 44.8518 6.57984 43.6619 6.14091C42.6954 5.76477 41.2457 5.3189 38.5729 5.19684ZM24.0009 35.9475C25.9554 36.7611 28.1318 36.8709 30.1583 36.2582C32.1848 35.6454 33.9358 34.3481 35.112 32.5878C36.2883 30.8276 36.8169 28.7135 36.6077 26.6067C36.3984 24.5 35.4642 22.5312 33.9647 21.0367C33.0087 20.0814 31.8529 19.3499 30.5803 18.8949C29.3077 18.4399 27.9501 18.2727 26.6052 18.4053C25.2602 18.538 23.9614 18.9672 22.8023 19.6621C21.6431 20.3569 20.6524 21.3001 19.9016 22.4238C19.1507 23.5475 18.6583 24.8237 18.4598 26.1605C18.2614 27.4973 18.3618 28.8615 18.7538 30.1549C19.1459 31.4482 19.8198 32.6386 20.7271 33.6402C21.6344 34.6418 22.7525 35.4299 24.0009 35.9475ZM17.5419 17.5419C18.8497 16.2341 20.4023 15.1967 22.111 14.489C23.8197 13.7812 25.6512 13.4169 27.5007 13.4169C29.3502 13.4169 31.1816 13.7812 32.8903 14.489C34.5991 15.1967 36.1517 16.2341 37.4595 17.5419C38.7673 18.8498 39.8047 20.4023 40.5125 22.1111C41.2202 23.8198 41.5845 25.6512 41.5845 27.5007C41.5845 29.3503 41.2202 31.1817 40.5125 32.8904C39.8047 34.5991 38.7673 36.1517 37.4595 37.4595C34.8182 40.1008 31.2359 41.5846 27.5007 41.5846C23.7654 41.5846 20.1831 40.1008 17.5419 37.4595C14.9007 34.8183 13.4168 31.236 13.4168 27.5007C13.4168 23.7655 14.9007 20.1832 17.5419 17.5419ZM44.7081 15.5143C45.0322 15.2086 45.2916 14.841 45.4711 14.4332C45.6505 14.0254 45.7463 13.5858 45.7528 13.1403C45.7593 12.6948 45.6764 12.2526 45.5089 11.8397C45.3414 11.4269 45.0928 11.0518 44.7777 10.7368C44.4627 10.4218 44.0877 10.1731 43.6748 10.0056C43.262 9.83816 42.8197 9.7552 42.3743 9.7617C41.9288 9.76819 41.4891 9.864 41.0814 10.0435C40.6736 10.2229 40.3059 10.4824 40.0002 10.8064C39.4057 11.4367 39.0801 12.2739 39.0928 13.1403C39.1054 14.0067 39.4552 14.834 40.0679 15.4467C40.6805 16.0594 41.5079 16.4091 42.3743 16.4218C43.2406 16.4344 44.0778 16.1089 44.7081 15.5143Z" fill="#F2F2F3"/>
</svg>
