<svg width="55" height="55" viewBox="0 0 55 55" fill="none" xmlns="http://www.w3.org/2000/svg">
<path d="M10.0945 21.5358H17.7501V44.5675H10.0945V21.5358Z" fill="#F2F2F3"/>
<path d="M13.8718 18.3924H13.9223C16.593 18.3924 18.2537 16.6232 18.2537 14.4118C18.2032 12.1517 16.593 10.4326 13.9724 10.4326C11.3522 10.4326 9.63916 12.1517 9.63916 14.4118C9.63916 16.6232 11.3039 18.3924 13.8718 18.3924Z" fill="#F2F2F3"/>
<path d="M29.6431 44.5674V31.7043C29.6431 31.0141 29.6958 30.3302 29.8974 29.838C30.4516 28.4604 31.7092 27.038 33.8257 27.038C36.597 27.038 37.7035 29.1505 37.7035 32.2452V44.567H45.3608V31.3596C45.3608 24.2857 41.5836 20.9949 36.5447 20.9949C32.4768 20.9949 30.6606 23.2337 29.6431 24.7992V24.8745H29.5931C29.6064 24.8497 29.6281 24.8244 29.6431 24.7992V21.5357H21.9845C22.0873 23.6961 21.9845 44.567 21.9845 44.567H29.6431V44.5674Z" fill="#F2F2F3"/>
<path d="M0 0V55H55V0H0ZM51.5979 51.5979H3.40206V3.40206H51.5979V51.5979Z" fill="#F2F2F3"/>
</svg>
