<svg width="410" height="352" viewBox="0 0 410 352" fill="none" xmlns="http://www.w3.org/2000/svg">
<path d="M134.948 338.738C129.77 338.738 124.269 337.12 118.444 333.883C107.117 327.087 102.586 321.101 104.852 315.923C108.735 309.127 113.751 295.535 119.9 275.147L133.006 231.459C137.537 217.543 142.068 202.171 146.598 185.343L16.9899 53.3078C14.7246 50.3953 13.5919 47.8064 13.5919 45.541C13.5919 43.2757 14.8864 41.4958 17.4753 40.2014C21.6823 38.2597 26.6984 37.2888 32.5235 37.2888C38.6722 37.2888 44.8209 38.2597 50.9696 40.2014C57.4419 42.1431 65.3705 46.9973 74.7554 54.7641C93.2016 70.2977 123.46 103.145 165.53 153.305C184.623 97.6433 198.377 61.8837 206.791 46.0265C215.205 29.8456 221.839 19.4899 226.693 14.9593C231.871 10.105 236.402 7.51609 240.285 7.19248C244.492 6.86886 248.052 7.03067 250.965 7.6779C253.877 8.32514 255.981 10.5905 257.275 14.4738C247.243 35.8325 237.535 60.1038 228.15 87.2876C219.088 114.148 209.704 141.979 199.995 170.781C174.429 247.154 152.747 303.14 134.948 338.738Z" fill="#CCCCCC"/>
<path d="M357.498 161.279H371.09C376.592 161.279 381.769 161.764 386.624 162.735C391.802 163.706 394.391 167.266 394.391 173.414C396.656 186.359 389.051 192.67 371.576 192.346C366.721 192.022 362.191 191.699 357.984 191.375C354.1 191.051 350.864 191.051 348.275 191.375C345.686 191.375 344.554 192.184 344.877 193.802C348.113 203.187 351.511 213.705 355.071 225.355C358.955 237.005 363.162 248.655 367.692 260.305C379.342 289.107 390.345 309.819 400.701 322.44C395.2 329.236 388.727 334.899 381.284 339.43C374.164 343.96 370.281 346.226 369.634 346.226C369.31 346.226 368.987 346.064 368.663 345.74L300.218 201.569L167.697 234.092L162.843 254.48C153.458 291.696 142.94 317.586 131.29 332.148C129.349 335.384 125.303 335.708 119.155 333.119C108.799 329.236 103.621 326 103.621 323.411C103.621 322.763 107.019 313.379 113.815 295.256C120.611 277.133 127.407 258.849 134.203 240.403C141.322 221.633 148.604 202.054 156.047 181.667C163.814 161.279 171.095 141.862 177.891 123.416C184.687 104.969 190.836 88.465 196.337 73.9023C201.839 59.0159 205.722 48.3366 207.987 41.8643C210.253 35.0683 211.709 29.2432 212.356 24.389C213.327 19.2111 214.622 14.8423 216.24 11.2825C219.476 3.83931 227.566 0.117717 240.511 0.117717C254.426 7.88451 265.106 18.0784 272.549 30.6995C280.316 42.9969 286.788 56.2652 291.966 70.5043C297.467 84.7434 302.807 99.1444 307.985 113.707C313.163 128.27 320.121 141.538 328.858 153.512C331.771 158.043 336.14 160.47 341.965 160.793C347.79 161.117 352.968 161.279 357.498 161.279ZM236.142 56.427C233.553 76.1676 227.728 96.3936 218.667 117.105C209.605 137.817 202.324 153.997 196.823 165.648C191.321 176.974 186.629 187.492 182.745 197.2C204.751 197.2 231.773 190.728 263.811 177.783C271.902 174.223 279.668 170.987 287.112 168.075C271.902 103.028 254.912 65.8119 236.142 56.427Z" fill="#4E37C4"/>
</svg>
