<svg width="3197" height="802" viewBox="0 0 3197 802" fill="none" xmlns="http://www.w3.org/2000/svg">
<path d="M1123 469.731C895 78.2313 541.066 631.5 461.5 364C396.166 144.347 183.15 297.15 9.53674e-05 466.261C-5.00858e-05 544.802 -1.80642e-05 582.87 7.36811e-06 613.105L0 670L9.53674e-05 802H1563.5L1629.5 700.8L1655.5 578.231C1636 527.398 1517.96 -184.589 1367 45.7312C1240.5 238.731 1283.62 745.534 1123 469.731Z" fill="#181818"/>
<path d="M2664 469.732C2436 78.2315 2082.07 631.5 2002.5 364C1945.31 171.713 1779.43 260.354 1615 400C1525.28 476.192 1432.84 570.73 1366 635.8L1541 802H3196.5V699V578.231C3177 527.398 3058.96 -184.588 2908 45.7315C2781.5 238.732 2824.62 745.534 2664 469.732Z" fill="#181818"/>
</svg>
