<svg width="68" height="48" viewBox="0 0 68 48" fill="none" xmlns="http://www.w3.org/2000/svg">
<path d="M67.436 23.7943C67.436 23.6326 67.436 23.4489 67.4286 23.2357C67.4211 22.6404 67.4062 21.9716 67.3912 21.2587C67.3315 19.2082 67.227 17.165 67.0629 15.2394C66.8389 12.5862 66.5106 10.374 66.0628 8.71304C65.5902 6.97965 64.6639 5.39875 63.3765 4.12837C62.089 2.85799 60.4855 1.94262 58.7263 1.47374C56.6141 0.915179 52.4794 0.569751 46.658 0.356614C43.8891 0.253721 40.9262 0.187575 37.9632 0.150827C36.9258 0.136128 35.963 0.128779 35.0973 0.121429H32.9031C32.0373 0.128779 31.0745 0.136128 30.0371 0.150827C27.0742 0.187575 24.1112 0.253721 21.3423 0.356614C15.5209 0.5771 11.3787 0.922529 9.27407 1.47374C7.51422 1.94146 5.91011 2.85645 4.62249 4.12701C3.33487 5.39757 2.40898 6.97908 1.93759 8.71304C1.48232 10.374 1.1614 12.5862 0.937499 15.2394C0.773305 17.165 0.668818 19.2082 0.609111 21.2587C0.586721 21.9716 0.579258 22.6404 0.571794 23.2357C0.571794 23.4489 0.564331 23.6326 0.564331 23.7943V24.2059C0.564331 24.3675 0.564331 24.5513 0.571794 24.7644C0.579258 25.3597 0.594184 26.0285 0.609111 26.7414C0.668818 28.792 0.773305 30.8351 0.937499 32.7607C1.1614 35.4139 1.48979 37.6261 1.93759 39.2871C2.8929 42.8075 5.69912 45.5857 9.27407 46.5264C11.3787 47.085 15.5209 47.4304 21.3423 47.6435C24.1112 47.7464 27.0742 47.8126 30.0371 47.8493C31.0745 47.864 32.0373 47.8714 32.9031 47.8787H35.0973C35.963 47.8714 36.9258 47.864 37.9632 47.8493C40.9262 47.8126 43.8891 47.7464 46.658 47.6435C52.4794 47.423 56.6216 47.0776 58.7263 46.5264C62.3012 45.5857 65.1074 42.8149 66.0628 39.2871C66.518 37.6261 66.8389 35.4139 67.0629 32.7607C67.227 30.8351 67.3315 28.792 67.3912 26.7414C67.4136 26.0285 67.4211 25.3597 67.4286 24.7644C67.4286 24.5513 67.436 24.3675 67.436 24.2059V23.7943ZM62.0624 24.1765C62.0624 24.3308 62.0624 24.4998 62.0549 24.6983C62.0475 25.2715 62.0325 25.9036 62.0176 26.5871C61.9654 28.5421 61.8609 30.4971 61.7042 32.3124C61.5026 34.6789 61.219 36.6192 60.8683 37.9201C60.4055 39.6178 59.0472 40.9628 57.3306 41.4111C55.7633 41.8227 51.8152 42.1534 46.4491 42.3519C43.7324 42.4548 40.8068 42.5209 37.8886 42.5577C36.8661 42.5724 35.9183 42.5797 35.0674 42.5797H32.9329L30.1118 42.5577C27.1936 42.5209 24.2754 42.4548 21.5513 42.3519C16.1851 42.1461 12.2296 41.8227 10.6697 41.4111C8.95314 40.9555 7.59481 39.6178 7.13209 37.9201C6.78131 36.6192 6.4977 34.6789 6.29619 32.3124C6.13946 30.4971 6.04244 28.5421 5.98273 26.5871C5.96034 25.9036 5.95288 25.2642 5.94541 24.6983C5.94541 24.4998 5.93795 24.3235 5.93795 24.1765V23.8237C5.93795 23.6693 5.93795 23.5003 5.94541 23.3019C5.95288 22.7286 5.9678 22.0965 5.98273 21.413C6.03497 19.4581 6.13946 17.5031 6.29619 15.6877C6.4977 13.3212 6.78131 11.3809 7.13209 10.0801C7.59481 8.38231 8.95314 7.03734 10.6697 6.58902C12.237 6.17745 16.1851 5.84672 21.5513 5.64828C24.268 5.54539 27.1936 5.47924 30.1118 5.44249C31.1342 5.42779 32.0821 5.42045 32.9329 5.42045H35.0674L37.8886 5.44249C40.8068 5.47924 43.7249 5.54539 46.4491 5.64828C51.8152 5.85407 55.7708 6.17745 57.3306 6.58902C59.0472 7.04469 60.4055 8.38231 60.8683 10.0801C61.219 11.3809 61.5026 13.3212 61.7042 15.6877C61.8609 17.5031 61.9579 19.4581 62.0176 21.413C62.04 22.0965 62.0475 22.736 62.0549 23.3019C62.0549 23.5003 62.0624 23.6767 62.0624 23.8237V24.1765ZM27.3578 33.8485L44.6728 23.9266L27.3578 14.1517V33.8485Z" fill="#F2F2F3"/>
</svg>
